# xmcd
#
# Track frame offsets:
#	150
#	11832
#	25667
#	35570
#	48965
#	61155
#	73255
#	86317
#	99825
#	115837
#
# Disc length: 1776 seconds
#
# Revision: 2
# Processed by: cddbd v1.5.1PL0 Copyright (c) Steve Scherf et al.
# Submitted via: MusicWizard 7.0.2
#
DISCID=7506ee0a
DTITLE=Ray Charles - Friendship
DYEAR=1984
DGENRE=Country
TTITLE0=Two Old Cats Like Us - With Hank Williams, Jr.
TTITLE1=This Old Heart (Is Gonna Rise Again) - With Oak Ridge Boys
TTITLE2=We Didn't See A Thing - With George Jones and Featuring Chet Atkins
TTITLE3=Who Cares - With Janie Fricke
TTITLE4=Rock And Roll Shoes - With B.J. Thomas
TTITLE5=Friendship - With Ricky Skaggs
TTITLE6=It Ain't Gonna Worry My Mind - With Mickey Gilley
TTITLE7=Little Hotel Room - With Merle Haggard
TTITLE8=Crazy Old Soldier - With Johnny Cash
TTITLE9=Seven Spanish Angels - With Willie Nelson
EXTD=(c)1984 Columbia Records\nupc 5099747260602\n\nStrings arranged and conducted by Bill McElhin
EXTD=ey\nRecorded at Eleven Eleven Studio, Nasvhille, Tennessee - Pedernales Recording Studio, Spic
EXTD=ewood, Texas - RPM Studios, Los Angeles, California;\nProduced by Billy Sherill - Engineers: R
EXTD=on Snake Reynolds, Ernie Winfrey, Larry Greenhill, Ray Charles\n\n (c)1984 Columbia Records /
EXTD=Mastered at Custom Mastering, Nashville, Tennessee by M.C. Rather  - \nSpecial thanks to:\nR
EXTD=ick Blackburn, Jody Fischer, Emily Mitchell, Connie Watson, Kathy McClintoch-Messer, Ej. J. B
EXTD=utler , Ronnie Pugh and Bob Pinson (at the Country Music Foundation) and very espially to Fed
EXTD=eral Express. Mickey Gilley, Merle Haggard, George Jones and Ricky Skaggs appear courtesy of 
EXTD=Epic Records. Oak Ridge Boys appear courtesy of MCA Records.Hank Williams,Jr. appears courtes
EXTD=y of Warner Bros. Records, Inc.\n
EXTT0=Songwriter: T. Seals - WB Music Corp./Two Sons Music\\r\n
EXTT1=Songwriter: J. Martin Johnson - B. Jones - Tree Publ. Co., Inc.\\r\n
EXTT2=Songwriter: G. Gentry - Algee Music Corp.\\r\n
EXTT3=Songwriter: G. Gentry - S. Kennedy - Algee Music Corp.\\r\n
EXTT4=Songwriter: P. Kennerly - G. Lyle - Good Single Ltd., Adm. in US and Canada by Irving Music,
EXTT4=Inc.\\r\n
EXTT5=Songwriter: C. Porter - Chappell Music\\r\n
EXTT6=Songwriter: R. Leigh - April Music Inc./Lion-Hearted Music\\r\n
EXTT7=Songwriter: F. Powers - Mt. Shasta Music\\r\n
EXTT8=Songwriter: P. Kennerly - T. Seals - Irving Music, Inc./WB Music Corp. /Two Sons Music\\r\n
EXTT9=Songwriter: T. Seals - E. Setser - Warner-Tamerlane Publ. Corp./WB Music Corp./Two-Sons Musi
EXTT9=c\\r\n
PLAYORDER=
